<svg xmlns="http://www.w3.org/2000/svg" xmlns:xlink="http://www.w3.org/1999/xlink" width="1474.84" height="777.64"><g transform="translate(0 0)"><path d="M26.82 26.82h230.3v196H26.82z" fill="#ffeca9"/><path d="M26.82 26.82h230.3v196H26.82zM26.82 66.82h230.3M86.82 66.82v156" stroke="#000" stroke-width="2" fill="none"/><use xlink:href="#a" transform="matrix(1,0,0,1,36.81532304173814,26.81532304173814) translate(59.462962962962955 24.88888888888889)"/><use xlink:href="#b" transform="matrix(1,0,0,1,31.81532304173814,69.31532304173814) translate(2.626543209876541 21.88888888888889)"/><use xlink:href="#c" transform="matrix(1,0,0,1,91.81532304173814,69.31532304173814) translate(0 21.88888888888889)"/><use xlink:href="#d" transform="matrix(1,0,0,1,91.81532304173814,69.31532304173814) translate(98.86419753086422 21.88888888888889)"/><use xlink:href="#e" transform="matrix(1,0,0,1,31.81532304173814,108.31532304173814) translate(0.8611111111111107 21.88888888888889)"/><use xlink:href="#f" transform="matrix(1,0,0,1,91.81532304173814,108.31532304173814) translate(0 21.88888888888889)"/><use xlink:href="#e" transform="matrix(1,0,0,1,31.81532304173814,147.31532304173814) translate(0.8611111111111107 21.88888888888889)"/><use xlink:href="#g" transform="matrix(1,0,0,1,91.81532304173814,147.31532304173814) translate(0 21.88888888888889)"/><use xlink:href="#h" transform="matrix(1,0,0,1,31.81532304173814,186.31532304173814) translate(2.626543209876541 21.88888888888889)"/><use xlink:href="#i" transform="matrix(1,0,0,1,91.81532304173814,186.31532304173814) translate(0 21.88888888888889)"/><path d="M324.12 219.82h230.3v157h-230.3z" fill="#c7e8ac"/><path d="M324.12 219.82h230.3v157h-230.3zM324.12 259.82h230.3M384.12 259.82v117" stroke="#000" stroke-width="2" fill="none"/><use xlink:href="#j" transform="matrix(1,0,0,1,334.1183533447685,219.8153230417381) translate(48.59876543209876 24.88888888888889)"/><use xlink:href="#b" transform="matrix(1,0,0,1,329.1183533447685,262.3153230417381) translate(2.626543209876541 21.88888888888889)"/><use xlink:href="#k" transform="matrix(1,0,0,1,389.1183533447685,262.3153230417381) translate(0 21.88888888888889)"/><use xlink:href="#e" transform="matrix(1,0,0,1,329.1183533447685,301.3153230417381) translate(0.8611111111111107 21.88888888888889)"/><use xlink:href="#f" transform="matrix(1,0,0,1,389.1183533447685,301.3153230417381) translate(0 21.88888888888889)"/><use xlink:href="#e" transform="matrix(1,0,0,1,329.1183533447685,340.3153230417381) translate(0.8611111111111107 21.88888888888889)"/><use xlink:href="#g" transform="matrix(1,0,0,1,389.1183533447685,340.3153230417381) translate(0 21.88888888888889)"/><path d="M621.42 373.82h230.3v118h-230.3z" fill="#c1e4f7"/><path d="M621.42 373.82h230.3v118h-230.3zM621.42 413.82h230.3M681.42 413.82v78" stroke="#000" stroke-width="2" fill="none"/><use xlink:href="#l" transform="matrix(1,0,0,1,631.4213836477987,373.8153230417381) translate(56.71296296296295 24.88888888888889)"/><use xlink:href="#b" transform="matrix(1,0,0,1,626.4213836477987,416.3153230417381) translate(2.626543209876541 21.88888888888889)"/><use xlink:href="#k" transform="matrix(1,0,0,1,686.4213836477987,416.3153230417381) translate(0 21.88888888888889)"/><use xlink:href="#b" transform="matrix(1,0,0,1,626.4213836477987,455.3153230417381) translate(2.626543209876541 21.88888888888889)"/><use xlink:href="#m" transform="matrix(1,0,0,1,686.4213836477987,455.3153230417381) translate(0 21.88888888888889)"/><path d="M1217.72 642.82h230.3v118h-230.3z" fill="#99d2f2"/><path d="M1217.72 642.82h230.3v118h-230.3zM1217.72 682.82h230.3M1277.72 682.82v78" stroke="#000" stroke-width="2" fill="none"/><use xlink:href="#n" transform="matrix(1,0,0,1,1227.724413950829,642.8153230417381) translate(75.69135802469135 24.88888888888889)"/><use xlink:href="#b" transform="matrix(1,0,0,1,1222.724413950829,685.3153230417381) translate(2.626543209876541 21.88888888888889)"/><use xlink:href="#o" transform="matrix(1,0,0,1,1282.724413950829,685.3153230417381) translate(0 21.88888888888889)"/><use xlink:href="#e" transform="matrix(1,0,0,1,1222.724413950829,724.3153230417381) translate(0.8611111111111107 21.88888888888889)"/><use xlink:href="#f" transform="matrix(1,0,0,1,1282.724413950829,724.3153230417381) translate(0 21.88888888888889)"/><path d="M918.72 488.82h230.3v157h-230.3z" fill="#99d2f2"/><path d="M918.72 488.82h230.3v157h-230.3zM918.72 528.82h230.3M978.72 528.82v117" stroke="#000" stroke-width="2" fill="none"/><use xlink:href="#p" transform="matrix(1,0,0,1,928.7244139508292,488.8153230417381) translate(82.48148148148148 24.88888888888889)"/><use xlink:href="#b" transform="matrix(1,0,0,1,923.7244139508292,531.3153230417381) translate(2.626543209876541 21.88888888888889)"/><use xlink:href="#m" transform="matrix(1,0,0,1,983.7244139508292,531.3153230417381) translate(0 21.88888888888889)"/><use xlink:href="#b" transform="matrix(1,0,0,1,923.7244139508292,570.3153230417381) translate(2.626543209876541 21.88888888888889)"/><use xlink:href="#o" transform="matrix(1,0,0,1,983.7244139508292,570.3153230417381) translate(0 21.88888888888889)"/><use xlink:href="#e" transform="matrix(1,0,0,1,923.7244139508292,609.3153230417381) translate(0.8611111111111107 21.88888888888889)"/><use xlink:href="#f" transform="matrix(1,0,0,1,983.7244139508292,609.3153230417381) translate(0 21.88888888888889)"/><path d="M1217.72 702.32h-33.77v-115h-33.77" stroke="#fff" stroke-width="2" fill="none"/><path d="M1150.18 588.32h-1.15v-2h1.15z" fill="#fff"/><path d="M918.72 548.32h-33.5v-76h-33.5M621.42 433.32H588.5v-154h-32.93" stroke="#fff" stroke-width="2" fill="none"/><path d="M555.57 280.32h-1.15v-2h1.15z" fill="#fff"/><path d="M324.12 279.32h-33.5v-76h-33.5" stroke="#fff" stroke-width="2" fill="none"/><defs><path d="M24-248c93 1 206-16 204 79-1 75-69 88-152 82V0H24v-248zm52 121c47 0 100 7 100-41 0-47-54-39-100-39v80" id="q"/><path d="M135-150c-39-12-60 13-60 57V0H25l-1-190h47c2 13-1 29 3 40 6-28 27-53 61-41v41" id="r"/><path d="M110-194c64 0 96 36 96 99 0 64-35 99-97 99-61 0-95-36-95-99 0-62 34-99 96-99zm-1 164c35 0 45-28 45-65 0-40-10-65-43-65-34 0-45 26-45 65 0 36 10 65 43 65" id="s"/><path d="M88-194c31-1 46 15 58 34l-1-101h50l1 261h-48c-2-10 0-23-3-31C134-8 116 4 84 4 32 4 16-41 15-95c0-56 19-97 73-99zm17 164c33 0 40-30 41-66 1-37-9-64-41-64s-38 30-39 65c0 43 13 65 39 65" id="t"/><path d="M85 4C-2 5 27-109 22-190h50c7 57-23 150 33 157 60-5 35-97 40-157h50l1 190h-47c-2-12 1-28-3-38-12 25-28 42-61 42" id="u"/><path d="M190-63c-7 42-38 67-86 67-59 0-84-38-90-98-12-110 154-137 174-36l-49 2c-2-19-15-32-35-32-30 0-35 28-38 64-6 74 65 87 74 30" id="v"/><path d="M115-3C79 11 28 4 28-45v-112H4v-33h27l15-45h31v45h36v33H77v99c-1 23 16 31 38 25v30" id="w"/><g id="a"><use transform="matrix(0.06790123456790124,0,0,0.06790123456790124,0,0)" xlink:href="#q"/><use transform="matrix(0.06790123456790124,0,0,0.06790123456790124,16.296296296296298,0)" xlink:href="#r"/><use transform="matrix(0.06790123456790124,0,0,0.06790123456790124,25.802469135802472,0)" xlink:href="#s"/><use transform="matrix(0.06790123456790124,0,0,0.06790123456790124,40.67283950617284,0)" xlink:href="#t"/><use transform="matrix(0.06790123456790124,0,0,0.06790123456790124,55.543209876543216,0)" xlink:href="#u"/><use transform="matrix(0.06790123456790124,0,0,0.06790123456790124,70.41358024691357,0)" xlink:href="#v"/><use transform="matrix(0.06790123456790124,0,0,0.06790123456790124,83.99382716049384,0)" xlink:href="#w"/></g><path d="M195 0l-88-114-31 24V0H24v-248h52v113l112-113h60L142-143 257 0h-62" id="x"/><path d="M185-48c-13 30-37 53-82 52C43 2 14-33 14-96s30-98 90-98c62 0 83 45 84 108H66c0 31 8 55 39 56 18 0 30-7 34-22zm-45-69c5-46-57-63-70-21-2 6-4 13-4 21h74" id="y"/><path d="M123 10C108 53 80 86 19 72V37c35 8 53-11 59-39L3-190h52l48 148c12-52 28-100 44-148h51" id="z"/><g id="b"><use transform="matrix(0.06790123456790124,0,0,0.06790123456790124,0,0)" xlink:href="#x"/><use transform="matrix(0.06790123456790124,0,0,0.06790123456790124,17.58641975308642,0)" xlink:href="#y"/><use transform="matrix(0.06790123456790124,0,0,0.06790123456790124,31.16666666666667,0)" xlink:href="#z"/></g><g id="c"><use transform="matrix(0.06790123456790124,0,0,0.06790123456790124,0,0)" xlink:href="#q"/><use transform="matrix(0.06790123456790124,0,0,0.06790123456790124,16.296296296296298,0)" xlink:href="#r"/><use transform="matrix(0.06790123456790124,0,0,0.06790123456790124,25.802469135802472,0)" xlink:href="#s"/><use transform="matrix(0.06790123456790124,0,0,0.06790123456790124,40.67283950617284,0)" xlink:href="#t"/><use transform="matrix(0.06790123456790124,0,0,0.06790123456790124,55.543209876543216,0)" xlink:href="#u"/><use transform="matrix(0.06790123456790124,0,0,0.06790123456790124,70.41358024691357,0)" xlink:href="#v"/><use transform="matrix(0.06790123456790124,0,0,0.06790123456790124,83.99382716049384,0)" xlink:href="#w"/></g><path d="M24 0v-248h52V0H24" id="A"/><g id="d"><use transform="matrix(0.06790123456790124,0,0,0.06790123456790124,0,0)" xlink:href="#A"/><use transform="matrix(0.06790123456790124,0,0,0.06790123456790124,6.790123456790124,0)" xlink:href="#t"/></g><path d="M136-208V0H84v-208H4v-40h212v40h-80" id="B"/><path d="M144 0l-44-69L55 0H2l70-98-66-92h53l41 62 40-62h54l-67 91 71 99h-54" id="C"/><g id="e"><use transform="matrix(0.06790123456790124,0,0,0.06790123456790124,0,0)" xlink:href="#B"/><use transform="matrix(0.06790123456790124,0,0,0.06790123456790124,13.037037037037038,0)" xlink:href="#y"/><use transform="matrix(0.06790123456790124,0,0,0.06790123456790124,26.617283950617285,0)" xlink:href="#C"/><use transform="matrix(0.06790123456790124,0,0,0.06790123456790124,40.19753086419753,0)" xlink:href="#w"/></g><path d="M175 0L67-191c6 58 2 128 3 191H24v-248h59L193-55c-6-58-2-129-3-193h46V0h-61" id="D"/><path d="M133-34C117-15 103 5 69 4 32 3 11-16 11-54c-1-60 55-63 116-61 1-26-3-47-28-47-18 1-26 9-28 27l-52-2c7-38 36-58 82-57s74 22 75 68l1 82c-1 14 12 18 25 15v27c-30 8-71 5-69-32zm-48 3c29 0 43-24 42-57-32 0-66-3-65 30 0 17 8 27 23 27" id="E"/><path d="M220-157c-53 9-28 100-34 157h-49v-107c1-27-5-49-29-50C55-147 81-57 75 0H25l-1-190h47c2 12-1 28 3 38 10-53 101-56 108 0 13-22 24-43 59-42 82 1 51 116 57 194h-49v-107c-1-25-5-48-29-50" id="F"/><g id="f"><use transform="matrix(0.06790123456790124,0,0,0.06790123456790124,0,0)" xlink:href="#D"/><use transform="matrix(0.06790123456790124,0,0,0.06790123456790124,17.58641975308642,0)" xlink:href="#E"/><use transform="matrix(0.06790123456790124,0,0,0.06790123456790124,31.16666666666667,0)" xlink:href="#F"/><use transform="matrix(0.06790123456790124,0,0,0.06790123456790124,52.89506172839507,0)" xlink:href="#y"/></g><path d="M24-248c120-7 223 5 221 122C244-46 201 0 124 0H24v-248zM76-40c74 7 117-18 117-86 0-67-45-88-117-82v168" id="G"/><path d="M137-138c1-29-70-34-71-4 15 46 118 7 119 86 1 83-164 76-172 9l43-7c4 19 20 25 44 25 33 8 57-30 24-41C81-84 22-81 20-136c-2-80 154-74 161-7" id="H"/><path d="M25-224v-37h50v37H25zM25 0v-190h50V0H25" id="I"/><path d="M135-194c53 0 70 44 70 98 0 56-19 98-73 100-31 1-45-17-59-34 3 33 2 69 2 105H25l-1-265h48c2 10 0 23 3 31 11-24 29-35 60-35zM114-30c33 0 39-31 40-66 0-38-9-64-40-64-56 0-55 130 0 130" id="J"/><path d="M135-194c87-1 58 113 63 194h-50c-7-57 23-157-34-157-59 0-34 97-39 157H25l-1-190h47c2 12-1 28 3 38 12-26 28-41 61-42" id="K"/><g id="g"><use transform="matrix(0.06790123456790124,0,0,0.06790123456790124,0,0)" xlink:href="#G"/><use transform="matrix(0.06790123456790124,0,0,0.06790123456790124,17.58641975308642,0)" xlink:href="#y"/><use transform="matrix(0.06790123456790124,0,0,0.06790123456790124,31.16666666666667,0)" xlink:href="#H"/><use transform="matrix(0.06790123456790124,0,0,0.06790123456790124,44.74691358024692,0)" xlink:href="#v"/><use transform="matrix(0.06790123456790124,0,0,0.06790123456790124,58.32716049382716,0)" xlink:href="#r"/><use transform="matrix(0.06790123456790124,0,0,0.06790123456790124,67.83333333333334,0)" xlink:href="#I"/><use transform="matrix(0.06790123456790124,0,0,0.06790123456790124,74.62345679012347,0)" xlink:href="#J"/><use transform="matrix(0.06790123456790124,0,0,0.06790123456790124,89.49382716049384,0)" xlink:href="#w"/><use transform="matrix(0.06790123456790124,0,0,0.06790123456790124,97.57407407407409,0)" xlink:href="#I"/><use transform="matrix(0.06790123456790124,0,0,0.06790123456790124,104.36419753086422,0)" xlink:href="#s"/><use transform="matrix(0.06790123456790124,0,0,0.06790123456790124,119.23456790123458,0)" xlink:href="#K"/></g><g id="h"><use transform="matrix(0.06790123456790124,0,0,0.06790123456790124,0,0)" xlink:href="#x"/><use transform="matrix(0.06790123456790124,0,0,0.06790123456790124,17.58641975308642,0)" xlink:href="#y"/><use transform="matrix(0.06790123456790124,0,0,0.06790123456790124,31.16666666666667,0)" xlink:href="#z"/></g><path d="M67-125c0 53 21 87 73 88 37 1 54-22 65-47l45 17C233-25 199 4 140 4 58 4 20-42 15-125 8-235 124-281 211-232c18 10 29 29 36 50l-46 12c-8-25-30-41-62-41-52 0-71 34-72 86" id="L"/><g id="i"><use transform="matrix(0.06790123456790124,0,0,0.06790123456790124,0,0)" xlink:href="#L"/><use transform="matrix(0.06790123456790124,0,0,0.06790123456790124,17.58641975308642,0)" xlink:href="#u"/><use transform="matrix(0.06790123456790124,0,0,0.06790123456790124,32.45679012345679,0)" xlink:href="#H"/><use transform="matrix(0.06790123456790124,0,0,0.06790123456790124,46.03703703703704,0)" xlink:href="#w"/><use transform="matrix(0.06790123456790124,0,0,0.06790123456790124,54.117283950617285,0)" xlink:href="#s"/><use transform="matrix(0.06790123456790124,0,0,0.06790123456790124,68.98765432098766,0)" xlink:href="#F"/><use transform="matrix(0.06790123456790124,0,0,0.06790123456790124,90.71604938271605,0)" xlink:href="#y"/><use transform="matrix(0.06790123456790124,0,0,0.06790123456790124,104.2962962962963,0)" xlink:href="#r"/><use transform="matrix(0.06790123456790124,0,0,0.06790123456790124,113.80246913580248,0)" xlink:href="#A"/><use transform="matrix(0.06790123456790124,0,0,0.06790123456790124,120.59259259259261,0)" xlink:href="#t"/></g><g id="j"><use transform="matrix(0.06790123456790124,0,0,0.06790123456790124,0,0)" xlink:href="#L"/><use transform="matrix(0.06790123456790124,0,0,0.06790123456790124,17.58641975308642,0)" xlink:href="#u"/><use transform="matrix(0.06790123456790124,0,0,0.06790123456790124,32.45679012345679,0)" xlink:href="#H"/><use transform="matrix(0.06790123456790124,0,0,0.06790123456790124,46.03703703703704,0)" xlink:href="#w"/><use transform="matrix(0.06790123456790124,0,0,0.06790123456790124,54.117283950617285,0)" xlink:href="#s"/><use transform="matrix(0.06790123456790124,0,0,0.06790123456790124,68.98765432098766,0)" xlink:href="#F"/><use transform="matrix(0.06790123456790124,0,0,0.06790123456790124,90.71604938271605,0)" xlink:href="#y"/><use transform="matrix(0.06790123456790124,0,0,0.06790123456790124,104.2962962962963,0)" xlink:href="#r"/></g><g id="k"><use transform="matrix(0.06790123456790124,0,0,0.06790123456790124,0,0)" xlink:href="#L"/><use transform="matrix(0.06790123456790124,0,0,0.06790123456790124,17.58641975308642,0)" xlink:href="#u"/><use transform="matrix(0.06790123456790124,0,0,0.06790123456790124,32.45679012345679,0)" xlink:href="#H"/><use transform="matrix(0.06790123456790124,0,0,0.06790123456790124,46.03703703703704,0)" xlink:href="#w"/><use transform="matrix(0.06790123456790124,0,0,0.06790123456790124,54.117283950617285,0)" xlink:href="#s"/><use transform="matrix(0.06790123456790124,0,0,0.06790123456790124,68.98765432098766,0)" xlink:href="#F"/><use transform="matrix(0.06790123456790124,0,0,0.06790123456790124,90.71604938271605,0)" xlink:href="#y"/><use transform="matrix(0.06790123456790124,0,0,0.06790123456790124,104.2962962962963,0)" xlink:href="#r"/><use transform="matrix(0.06790123456790124,0,0,0.06790123456790124,113.80246913580248,0)" xlink:href="#A"/><use transform="matrix(0.06790123456790124,0,0,0.06790123456790124,120.59259259259261,0)" xlink:href="#t"/></g><path d="M199 0l-22-63H83L61 0H9l90-248h61L250 0h-51zm-33-102l-36-108c-10 38-24 72-36 108h72" id="M"/><g id="l"><use transform="matrix(0.06790123456790124,0,0,0.06790123456790124,0,0)" xlink:href="#M"/><use transform="matrix(0.06790123456790124,0,0,0.06790123456790124,17.58641975308642,0)" xlink:href="#t"/><use transform="matrix(0.06790123456790124,0,0,0.06790123456790124,32.45679012345679,0)" xlink:href="#t"/><use transform="matrix(0.06790123456790124,0,0,0.06790123456790124,47.327160493827165,0)" xlink:href="#r"/><use transform="matrix(0.06790123456790124,0,0,0.06790123456790124,56.83333333333334,0)" xlink:href="#y"/><use transform="matrix(0.06790123456790124,0,0,0.06790123456790124,70.4135802469136,0)" xlink:href="#H"/><use transform="matrix(0.06790123456790124,0,0,0.06790123456790124,83.99382716049385,0)" xlink:href="#H"/></g><g id="m"><use transform="matrix(0.06790123456790124,0,0,0.06790123456790124,0,0)" xlink:href="#L"/><use transform="matrix(0.06790123456790124,0,0,0.06790123456790124,17.58641975308642,0)" xlink:href="#I"/><use transform="matrix(0.06790123456790124,0,0,0.06790123456790124,24.376543209876544,0)" xlink:href="#w"/><use transform="matrix(0.06790123456790124,0,0,0.06790123456790124,32.45679012345679,0)" xlink:href="#z"/><use transform="matrix(0.06790123456790124,0,0,0.06790123456790124,46.03703703703704,0)" xlink:href="#A"/><use transform="matrix(0.06790123456790124,0,0,0.06790123456790124,52.827160493827165,0)" xlink:href="#t"/></g><path d="M169-182c-1-43-94-46-97-3 18 66 151 10 154 114 3 95-165 93-204 36-6-8-10-19-12-30l50-8c3 46 112 56 116 5-17-69-150-10-154-114-4-87 153-88 188-35 5 8 8 18 10 28" id="N"/><g id="n"><use transform="matrix(0.06790123456790124,0,0,0.06790123456790124,0,0)" xlink:href="#N"/><use transform="matrix(0.06790123456790124,0,0,0.06790123456790124,16.296296296296298,0)" xlink:href="#w"/><use transform="matrix(0.06790123456790124,0,0,0.06790123456790124,24.376543209876544,0)" xlink:href="#E"/><use transform="matrix(0.06790123456790124,0,0,0.06790123456790124,37.95679012345679,0)" xlink:href="#w"/><use transform="matrix(0.06790123456790124,0,0,0.06790123456790124,46.03703703703704,0)" xlink:href="#y"/></g><g id="o"><use transform="matrix(0.06790123456790124,0,0,0.06790123456790124,0,0)" xlink:href="#N"/><use transform="matrix(0.06790123456790124,0,0,0.06790123456790124,16.296296296296298,0)" xlink:href="#w"/><use transform="matrix(0.06790123456790124,0,0,0.06790123456790124,24.376543209876544,0)" xlink:href="#E"/><use transform="matrix(0.06790123456790124,0,0,0.06790123456790124,37.95679012345679,0)" xlink:href="#w"/><use transform="matrix(0.06790123456790124,0,0,0.06790123456790124,46.03703703703704,0)" xlink:href="#y"/><use transform="matrix(0.06790123456790124,0,0,0.06790123456790124,59.617283950617285,0)" xlink:href="#A"/><use transform="matrix(0.06790123456790124,0,0,0.06790123456790124,66.4074074074074,0)" xlink:href="#t"/></g><g id="p"><use transform="matrix(0.06790123456790124,0,0,0.06790123456790124,0,0)" xlink:href="#L"/><use transform="matrix(0.06790123456790124,0,0,0.06790123456790124,17.58641975308642,0)" xlink:href="#I"/><use transform="matrix(0.06790123456790124,0,0,0.06790123456790124,24.376543209876544,0)" xlink:href="#w"/><use transform="matrix(0.06790123456790124,0,0,0.06790123456790124,32.45679012345679,0)" xlink:href="#z"/></g></defs></g></svg>