<svg xmlns="http://www.w3.org/2000/svg" xmlns:xlink="http://www.w3.org/1999/xlink" width="1440" height="493.7"><g transform="translate(-49.53076923076924 -49.53076923076924)"><path d="M69.53 69.53h170v61h-170z" fill="#fff"/><path d="M239.53 69.53h180v61h-180zM419.53 69.53h175v61h-175zM594.53 69.53h175v61h-175zM769.53 69.53h175v61h-175zM944.53 69.53h175v61h-175zM1119.53 69.53h175v61h-175zM1294.53 69.53h175v61h-175z" fill="#fff"/><path d="M69.53 130.28h170v61h-170z" fill="#fff"/><path d="M239.53 130.28h180v61h-180zM419.53 130.28h175v61h-175zM594.53 130.28h175v61h-175zM769.53 130.28h175v61h-175zM944.53 130.28h175v61h-175zM1119.53 130.28h175v61h-175zM1294.53 130.28h175v61h-175z" fill="#fff"/><path d="M69.53 191.03h170v61h-170z" fill="#fff"/><path d="M239.53 191.03h180v61h-180zM419.53 191.03h175v61h-175zM594.53 191.03h175v61h-175zM769.53 191.03h175v61h-175zM944.53 191.03h175v61h-175zM1119.53 191.03h175v61h-175zM1294.53 191.03h175v61h-175z" fill="#fff"/><path d="M69.53 251.78h170v61h-170z" fill="#fff"/><path d="M239.53 251.78h180v61h-180zM419.53 251.78h175v61h-175zM594.53 251.78h175v61h-175zM769.53 251.78h175v61h-175zM944.53 251.78h175v61h-175zM1119.53 251.78h175v61h-175zM1294.53 251.78h175v61h-175z" fill="#fff"/><path d="M69.53 312.53h170v61h-170z" fill="#fff"/><path d="M239.53 312.53h180v61h-180zM419.53 312.53h175v61h-175zM594.53 312.53h175v61h-175zM769.53 312.53h175v61h-175zM944.53 312.53h175v61h-175zM1119.53 312.53h175v61h-175zM1294.53 312.53h175v61h-175z" fill="#fff"/><path d="M69.53 373.28h170v61h-170z" fill="#fff"/><path d="M239.53 373.28h180v61h-180zM419.53 373.28h175v61h-175zM594.53 373.28h175v61h-175zM769.53 373.28h175v61h-175zM944.53 373.28h175v61h-175zM1119.53 373.28h175v61h-175zM1294.53 373.28h175v61h-175z" fill="#fff"/><path d="M69.53 434.03h170v61h-170z" fill="#fff"/><path d="M239.53 434.03h180v61h-180zM419.53 434.03h175v61h-175zM594.53 434.03h175v61h-175zM769.53 434.03h175v61h-175zM944.53 434.03h175v61h-175zM1119.53 434.03h175v61h-175zM1294.53 434.03h175v61h-175z" fill="#fff"/><path d="M69.53 69.53h1400v425.25h-1400z" stroke="#000" fill="none"/><path d="M69.53 69.53h170v61h-170z" stroke="#000" fill="none"/><path d="M239.53 69.53h180v61h-180zM419.53 69.53h175v61h-175zM594.53 69.53h175v61h-175zM769.53 69.53h175v61h-175zM944.53 69.53h175v61h-175zM1119.53 69.53h175v61h-175zM1294.53 69.53h175v61h-175z" stroke="#000" fill="none"/><path d="M69.53 130.28h170v61h-170z" stroke="#000" fill="none"/><path d="M239.53 130.28h180v61h-180zM419.53 130.28h175v61h-175zM594.53 130.28h175v61h-175zM769.53 130.28h175v61h-175zM944.53 130.28h175v61h-175zM1119.53 130.28h175v61h-175zM1294.53 130.28h175v61h-175z" stroke="#000" fill="none"/><path d="M69.53 191.03h170v61h-170z" stroke="#000" fill="none"/><path d="M239.53 191.03h180v61h-180zM419.53 191.03h175v61h-175zM594.53 191.03h175v61h-175zM769.53 191.03h175v61h-175zM944.53 191.03h175v61h-175zM1119.53 191.03h175v61h-175zM1294.53 191.03h175v61h-175z" stroke="#000" fill="none"/><path d="M69.53 251.78h170v61h-170z" stroke="#000" fill="none"/><path d="M239.53 251.78h180v61h-180zM419.53 251.78h175v61h-175zM594.53 251.78h175v61h-175zM769.53 251.78h175v61h-175zM944.53 251.78h175v61h-175zM1119.53 251.78h175v61h-175zM1294.53 251.78h175v61h-175z" stroke="#000" fill="none"/><path d="M69.53 312.53h170v61h-170z" stroke="#000" fill="none"/><path d="M239.53 312.53h180v61h-180zM419.53 312.53h175v61h-175zM594.53 312.53h175v61h-175zM769.53 312.53h175v61h-175zM944.53 312.53h175v61h-175zM1119.53 312.53h175v61h-175zM1294.53 312.53h175v61h-175z" stroke="#000" fill="none"/><path d="M69.53 373.28h170v61h-170z" stroke="#000" fill="none"/><path d="M239.53 373.28h180v61h-180zM419.53 373.28h175v61h-175zM594.53 373.28h175v61h-175zM769.53 373.28h175v61h-175zM944.53 373.28h175v61h-175zM1119.53 373.28h175v61h-175zM1294.53 373.28h175v61h-175z" stroke="#000" fill="none"/><path d="M69.53 434.03h170v61h-170z" stroke="#000" fill="none"/><path d="M239.53 434.03h180v61h-180zM419.53 434.03h175v61h-175zM594.53 434.03h175v61h-175zM769.53 434.03h175v61h-175zM944.53 434.03h175v61h-175zM1119.53 434.03h175v61h-175zM1294.53 434.03h175v61h-175z" stroke="#000" fill="none"/><use xlink:href="#a" transform="matrix(1,0,0,1,74.53076923076924,74.53076923076924) translate(28.292943148910247 30.98696844993141)"/><use xlink:href="#b" transform="matrix(1,0,0,1,244.53076923076924,74.53076923076924) translate(47.6962353299802 30.98696844993141)"/><use xlink:href="#c" transform="matrix(1,0,0,1,424.53076923076924,74.53076923076924) translate(33.04107605547936 30.98696844993141)"/><use xlink:href="#d" transform="matrix(1,0,0,1,74.53076923076924,135.28076923076924) translate(65 29.1)"/><use xlink:href="#e" transform="matrix(1,0,0,1,244.53076923076924,135.28076923076924) translate(29.599999999999994 29.1)"/><use xlink:href="#f" transform="matrix(1,0,0,1,244.53076923076924,135.28076923076924) translate(87.5 29.1)"/><use xlink:href="#g" transform="matrix(1,0,0,1,424.53076923076924,135.28076923076924) translate(62.5 29.1)"/><use xlink:href="#h" transform="matrix(1,0,0,1,74.53076923076924,196.03076923076924) translate(65 29.1)"/><use xlink:href="#i" transform="matrix(1,0,0,1,244.53076923076924,196.03076923076924) translate(40.05 29.1)"/><use xlink:href="#j" transform="matrix(1,0,0,1,244.53076923076924,196.03076923076924) translate(95 29.1)"/><use xlink:href="#k" transform="matrix(1,0,0,1,424.53076923076924,196.03076923076924) translate(62.5 29.1)"/><use xlink:href="#l" transform="matrix(1,0,0,1,74.53076923076924,256.78076923076924) translate(65 29.1)"/><use xlink:href="#m" transform="matrix(1,0,0,1,244.53076923076924,256.78076923076924) translate(48.55 29.1)"/><use xlink:href="#j" transform="matrix(1,0,0,1,244.53076923076924,256.78076923076924) translate(86.5 29.1)"/><use xlink:href="#n" transform="matrix(1,0,0,1,424.53076923076924,256.78076923076924) translate(62.5 29.1)"/><use xlink:href="#m" transform="matrix(1,0,0,1,599.5307692307692,256.78076923076924) translate(30.574999999999996 29.1)"/><use xlink:href="#o" transform="matrix(1,0,0,1,599.5307692307692,256.78076923076924) translate(68.525 29.1)"/><use xlink:href="#p" transform="matrix(1,0,0,1,599.5307692307692,256.78076923076924) translate(108.475 29.1)"/><use xlink:href="#q" transform="matrix(1,0,0,1,774.5307692307692,256.78076923076924) translate(58.525 29.1)"/><use xlink:href="#r" transform="matrix(1,0,0,1,949.5307692307692,256.78076923076924) translate(26.599999999999994 29.1)"/><use xlink:href="#s" transform="matrix(1,0,0,1,949.5307692307692,256.78076923076924) translate(124.45 29.1)"/><use xlink:href="#t" transform="matrix(1,0,0,1,1124.5307692307692,256.78076923076924) translate(50.349999999999994 29.1)"/><use xlink:href="#u" transform="matrix(1,0,0,1,1299.5307692307692,256.78076923076924) translate(70.025 29.1)"/><use xlink:href="#v" transform="matrix(1,0,0,1,74.53076923076924,317.53076923076924) translate(65 29.1)"/><use xlink:href="#w" transform="matrix(1,0,0,1,244.53076923076924,317.53076923076924) translate(39.5 29.1)"/><use xlink:href="#n" transform="matrix(1,0,0,1,424.53076923076924,317.53076923076924) translate(62.5 29.1)"/><use xlink:href="#x" transform="matrix(1,0,0,1,599.5307692307692,317.53076923076924) translate(10.25 29.1)"/><use xlink:href="#y" transform="matrix(1,0,0,1,599.5307692307692,317.53076923076924) translate(63.75000000000001 29.1)"/><use xlink:href="#z" transform="matrix(1,0,0,1,774.5307692307692,317.53076923076924) translate(49.025 29.1)"/><use xlink:href="#r" transform="matrix(1,0,0,1,949.5307692307692,317.53076923076924) translate(26.599999999999994 29.1)"/><use xlink:href="#s" transform="matrix(1,0,0,1,949.5307692307692,317.53076923076924) translate(124.45 29.1)"/><use xlink:href="#t" transform="matrix(1,0,0,1,1124.5307692307692,317.53076923076924) translate(50.349999999999994 29.1)"/><use xlink:href="#u" transform="matrix(1,0,0,1,1299.5307692307692,317.53076923076924) translate(70.025 29.1)"/><use xlink:href="#A" transform="matrix(1,0,0,1,74.53076923076924,378.28076923076924) translate(65 29.1)"/><use xlink:href="#B" transform="matrix(1,0,0,1,244.53076923076924,378.28076923076924) translate(36.55 29.1)"/><use xlink:href="#C" transform="matrix(1,0,0,1,244.53076923076924,378.28076923076924) translate(72.55 29.1)"/><use xlink:href="#D" transform="matrix(1,0,0,1,244.53076923076924,378.28076923076924) translate(92.55 29.1)"/><use xlink:href="#E" transform="matrix(1,0,0,1,424.53076923076924,378.28076923076924) translate(62.5 29.1)"/><use xlink:href="#F" transform="matrix(1,0,0,1,599.5307692307692,378.28076923076924) translate(31.549999999999997 29.1)"/><use xlink:href="#G" transform="matrix(1,0,0,1,599.5307692307692,378.28076923076924) translate(82.45 29.1)"/><use xlink:href="#H" transform="matrix(1,0,0,1,599.5307692307692,378.28076923076924) translate(118.45 29.1)"/><use xlink:href="#I" transform="matrix(1,0,0,1,774.5307692307692,378.28076923076924) translate(32.75 29.1)"/><use xlink:href="#J" transform="matrix(1,0,0,1,949.5307692307692,378.28076923076924) translate(32.075 29.1)"/><use xlink:href="#K" transform="matrix(1,0,0,1,949.5307692307692,378.28076923076924) translate(83.925 29.1)"/><use xlink:href="#L" transform="matrix(1,0,0,1,1124.5307692307692,378.28076923076924) translate(41.05 29.1)"/><use xlink:href="#M" transform="matrix(1,0,0,1,1299.5307692307692,378.28076923076924) translate(67.55 29.1)"/><use xlink:href="#N" transform="matrix(1,0,0,1,74.53076923076924,439.03076923076924) translate(65 29.1)"/><use xlink:href="#O" transform="matrix(1,0,0,1,244.53076923076924,439.03076923076924) translate(37.575 29.1)"/><use xlink:href="#P" transform="matrix(1,0,0,1,244.53076923076924,439.03076923076924) translate(107.425 29.1)"/><use xlink:href="#Q" transform="matrix(1,0,0,1,424.53076923076924,439.03076923076924) translate(57.5 29.1)"/><use xlink:href="#R" transform="matrix(1,0,0,1,599.5307692307692,439.03076923076924) translate(11.650000000000006 29.1)"/><use xlink:href="#S" transform="matrix(1,0,0,1,599.5307692307692,439.03076923076924) translate(62.50000000000001 29.1)"/><use xlink:href="#T" transform="matrix(1,0,0,1,599.5307692307692,439.03076923076924) translate(92.5 29.1)"/><use xlink:href="#U" transform="matrix(1,0,0,1,774.5307692307692,439.03076923076924) translate(41.099999999999994 29.1)"/><use xlink:href="#V" transform="matrix(1,0,0,1,949.5307692307692,439.03076923076924) translate(14.074999999999989 29.1)"/><use xlink:href="#W" transform="matrix(1,0,0,1,949.5307692307692,439.03076923076924) translate(86.975 29.1)"/><use xlink:href="#X" transform="matrix(1,0,0,1,1124.5307692307692,439.03076923076924) translate(34.074999999999996 29.1)"/><use xlink:href="#M" transform="matrix(1,0,0,1,1299.5307692307692,439.03076923076924) translate(67.55 29.1)"/><use xlink:href="#Y" transform="matrix(1,0,0,1,599.5307692307692,74.53076923076924) translate(7.244703551287941 30.98696844993141)"/><use xlink:href="#Z" transform="matrix(1,0,0,1,774.5307692307692,74.53076923076924) translate(18.637783874409408 30.98696844993141)"/><use xlink:href="#aa" transform="matrix(1,0,0,1,949.5307692307692,74.53076923076924) translate(43.71018137479044 30.98696844993141)"/><use xlink:href="#ab" transform="matrix(1,0,0,1,1124.5307692307692,74.53076923076924) translate(56.665523548239605 30.98696844993141)"/><use xlink:href="#ac" transform="matrix(1,0,0,1,1299.5307692307692,74.53076923076924) translate(49.04473403444598 30.98696844993141)"/><use xlink:href="#ad" transform="matrix(1,0,0,1,599.5307692307692,135.28076923076924) translate(21.299999999999997 29.1)"/><use xlink:href="#ae" transform="matrix(1,0,0,1,599.5307692307692,135.28076923076924) translate(90.8 29.1)"/><use xlink:href="#af" transform="matrix(1,0,0,1,774.5307692307692,135.28076923076924) translate(53.525 29.1)"/><use xlink:href="#r" transform="matrix(1,0,0,1,949.5307692307692,135.28076923076924) translate(26.599999999999994 29.1)"/><use xlink:href="#s" transform="matrix(1,0,0,1,949.5307692307692,135.28076923076924) translate(124.45 29.1)"/><use xlink:href="#ag" transform="matrix(1,0,0,1,1124.5307692307692,135.28076923076924) translate(55.525 29.1)"/><use xlink:href="#ah" transform="matrix(1,0,0,1,1299.5307692307692,135.28076923076924) translate(70.025 29.1)"/><g><use xlink:href="#i" transform="matrix(1,0,0,1,599.5307692307692,196.03076923076924) translate(22.074999999999996 29.1)"/><use xlink:href="#o" transform="matrix(1,0,0,1,599.5307692307692,196.03076923076924) translate(77.025 29.1)"/><use xlink:href="#p" transform="matrix(1,0,0,1,599.5307692307692,196.03076923076924) translate(116.975 29.1)"/></g><g><use xlink:href="#ai" transform="matrix(1,0,0,1,774.5307692307692,196.03076923076924) translate(61.5 29.1)"/></g><g><use xlink:href="#r" transform="matrix(1,0,0,1,949.5307692307692,196.03076923076924) translate(26.599999999999994 29.1)"/><use xlink:href="#s" transform="matrix(1,0,0,1,949.5307692307692,196.03076923076924) translate(124.45 29.1)"/></g><g><use xlink:href="#aj" transform="matrix(1,0,0,1,1124.5307692307692,196.03076923076924) translate(54.5 29.1)"/></g><g><use xlink:href="#ak" transform="matrix(1,0,0,1,1299.5307692307692,196.03076923076924) translate(69.025 29.1)"/></g><path d="M542.02 501.23h480v20.25h-480z" fill="none"/><g><use xlink:href="#al" transform="matrix(1,0,0,1,542.0245963912631,501.2307692307693) translate(0 14.4)"/><use xlink:href="#am" transform="matrix(1,0,0,1,542.0245963912631,501.2307692307693) translate(26 14.4)"/></g><g><use xlink:href="#an" transform="matrix(1,0,0,1,648.6912630579297,501.2307692307693) translate(8.5 14.4)"/></g><g><use xlink:href="#ao" transform="matrix(1,0,0,1,675.3579297245965,501.2307692307693) translate(8.5 14.4)"/></g><g><use xlink:href="#ap" transform="matrix(1,0,0,1,702.0245963912631,501.2307692307693) translate(8.5 14.4)"/></g><g><use xlink:href="#aq" transform="matrix(1,0,0,1,728.6912630579299,501.2307692307693) translate(8.5 14.4)"/></g><g><use xlink:href="#ar" transform="matrix(1,0,0,1,755.3579297245965,501.2307692307693) translate(8.5 14.4)"/></g><g><use xlink:href="#as" transform="matrix(1,0,0,1,782.0245963912631,501.2307692307693) translate(8.5 14.4)"/></g><g><use xlink:href="#at" transform="matrix(1,0,0,1,808.6912630579299,501.2307692307693) translate(8.5 14.4)"/></g><g><use xlink:href="#au" transform="matrix(1,0,0,1,835.3579297245965,501.2307692307693) translate(8.5 14.4)"/></g><g><use xlink:href="#av" transform="matrix(1,0,0,1,862.0245963912631,501.2307692307693) translate(8.5 14.4)"/></g><g><use xlink:href="#aw" transform="matrix(1,0,0,1,888.6912630579299,501.2307692307693) translate(3.5 14.4)"/></g><g><use xlink:href="#ax" transform="matrix(1,0,0,1,915.3579297245965,501.2307692307693) translate(42.099999999999994 14.4)"/><use xlink:href="#ay" transform="matrix(1,0,0,1,915.3579297245965,501.2307692307693) translate(86 14.4)"/></g><defs><path d="M175 0L67-191c6 58 2 128 3 191H24v-248h59L193-55c-6-58-2-129-3-193h46V0h-61" id="az"/><path d="M85 4C-2 5 27-109 22-190h50c7 57-23 150 33 157 60-5 35-97 40-157h50l1 190h-47c-2-12 1-28-3-38-12 25-28 42-61 42" id="aA"/><path d="M220-157c-53 9-28 100-34 157h-49v-107c1-27-5-49-29-50C55-147 81-57 75 0H25l-1-190h47c2 12-1 28 3 38 10-53 101-56 108 0 13-22 24-43 59-42 82 1 51 116 57 194h-49v-107c-1-25-5-48-29-50" id="aB"/><path d="M135-194c52 0 70 43 70 98 0 56-19 99-73 100-30 1-46-15-58-35L72 0H24l1-261h50v104c11-23 29-37 60-37zM114-30c31 0 40-27 40-66 0-37-7-63-39-63s-41 28-41 65c0 36 8 64 40 64" id="aC"/><path d="M185-48c-13 30-37 53-82 52C43 2 14-33 14-96s30-98 90-98c62 0 83 45 84 108H66c0 31 8 55 39 56 18 0 30-7 34-22zm-45-69c5-46-57-63-70-21-2 6-4 13-4 21h74" id="aD"/><path d="M135-150c-39-12-60 13-60 57V0H25l-1-190h47c2 13-1 29 3 40 6-28 27-53 61-41v41" id="aE"/><g id="a"><use transform="matrix(0.07620789513793627,0,0,0.07620789513793627,0,0)" xlink:href="#az"/><use transform="matrix(0.07620789513793627,0,0,0.07620789513793627,19.737844840725494,0)" xlink:href="#aA"/><use transform="matrix(0.07620789513793627,0,0,0.07620789513793627,36.42737387593354,0)" xlink:href="#aB"/><use transform="matrix(0.07620789513793627,0,0,0.07620789513793627,60.813900320073145,0)" xlink:href="#aC"/><use transform="matrix(0.07620789513793627,0,0,0.07620789513793627,77.50342935528118,0)" xlink:href="#aD"/><use transform="matrix(0.07620789513793627,0,0,0.07620789513793627,92.74500838286845,0)" xlink:href="#aE"/></g><path d="M133-34C117-15 103 5 69 4 32 3 11-16 11-54c-1-60 55-63 116-61 1-26-3-47-28-47-18 1-26 9-28 27l-52-2c7-38 36-58 82-57s74 22 75 68l1 82c-1 14 12 18 25 15v27c-30 8-71 5-69-32zm-48 3c29 0 43-24 42-57-32 0-66-3-65 30 0 17 8 27 23 27" id="aF"/><g id="b"><use transform="matrix(0.07620789513793627,0,0,0.07620789513793627,0,0)" xlink:href="#az"/><use transform="matrix(0.07620789513793627,0,0,0.07620789513793627,19.737844840725494,0)" xlink:href="#aF"/><use transform="matrix(0.07620789513793627,0,0,0.07620789513793627,34.97942386831275,0)" xlink:href="#aB"/><use transform="matrix(0.07620789513793627,0,0,0.07620789513793627,59.365950312452355,0)" xlink:href="#aD"/></g><path d="M147 0H94L2-248h55l64 206c17-72 42-137 63-206h54" id="aG"/><path d="M137-138c1-29-70-34-71-4 15 46 118 7 119 86 1 83-164 76-172 9l43-7c4 19 20 25 44 25 33 8 57-30 24-41C81-84 22-81 20-136c-2-80 154-74 161-7" id="aH"/><path d="M25-224v-37h50v37H25zM25 0v-190h50V0H25" id="aI"/><path d="M110-194c64 0 96 36 96 99 0 64-35 99-97 99-61 0-95-36-95-99 0-62 34-99 96-99zm-1 164c35 0 45-28 45-65 0-40-10-65-43-65-34 0-45 26-45 65 0 36 10 65 43 65" id="aJ"/><path d="M135-194c87-1 58 113 63 194h-50c-7-57 23-157-34-157-59 0-34 97-39 157H25l-1-190h47c2 12-1 28 3 38 12-26 28-41 61-42" id="aK"/><g id="c"><use transform="matrix(0.07620789513793627,0,0,0.07620789513793627,0,0)" xlink:href="#aG"/><use transform="matrix(0.07620789513793627,0,0,0.07620789513793627,16.76573693034598,0)" xlink:href="#aD"/><use transform="matrix(0.07620789513793627,0,0,0.07620789513793627,32.00731595793324,0)" xlink:href="#aE"/><use transform="matrix(0.07620789513793627,0,0,0.07620789513793627,42.67642127724431,0)" xlink:href="#aH"/><use transform="matrix(0.07620789513793627,0,0,0.07620789513793627,57.91800030483157,0)" xlink:href="#aI"/><use transform="matrix(0.07620789513793627,0,0,0.07620789513793627,65.5387898186252,0)" xlink:href="#aJ"/><use transform="matrix(0.07620789513793627,0,0,0.07620789513793627,82.22831885383323,0)" xlink:href="#aK"/></g><path d="M101-251c68 0 85 55 85 127S166 4 100 4C33 4 14-52 14-124c0-73 17-127 87-127zm-1 229c47 0 54-49 54-102s-4-102-53-102c-51 0-55 48-55 102 0 53 5 102 54 102" id="aL"/><path d="M27 0v-27h64v-190l-56 39v-29l58-41h29v221h61V0H27" id="aM"/><g id="d"><use transform="matrix(0.05,0,0,0.05,0,0)" xlink:href="#aL"/><use transform="matrix(0.05,0,0,0.05,10,0)" xlink:href="#aL"/><use transform="matrix(0.05,0,0,0.05,20,0)" xlink:href="#aM"/></g><path d="M127-220V0H93v-220H8v-28h204v28h-85" id="aN"/><path d="M100-194c62-1 85 37 85 99 1 63-27 99-86 99S16-35 15-95c0-66 28-99 85-99zM99-20c44 1 53-31 53-75 0-43-8-75-51-75s-53 32-53 75 10 74 51 75" id="aO"/><path d="M177-190C167-65 218 103 67 71c-23-6-38-20-44-43l32-5c15 47 100 32 89-28v-30C133-14 115 1 83 1 29 1 15-40 15-95c0-56 16-97 71-98 29-1 48 16 59 35 1-10 0-23 2-32h30zM94-22c36 0 50-32 50-73 0-42-14-75-50-75-39 0-46 34-46 75s6 73 46 73" id="aP"/><path d="M24 0v-261h32V0H24" id="aQ"/><path d="M100-194c63 0 86 42 84 106H49c0 40 14 67 53 68 26 1 43-12 49-29l28 8c-11 28-37 45-77 45C44 4 14-33 15-96c1-61 26-98 85-98zm52 81c6-60-76-77-97-28-3 7-6 17-6 28h103" id="aR"/><g id="e"><use transform="matrix(0.05,0,0,0.05,0,0)" xlink:href="#aN"/><use transform="matrix(0.05,0,0,0.05,8.950000000000001,0)" xlink:href="#aO"/><use transform="matrix(0.05,0,0,0.05,18.950000000000003,0)" xlink:href="#aP"/><use transform="matrix(0.05,0,0,0.05,28.950000000000003,0)" xlink:href="#aP"/><use transform="matrix(0.05,0,0,0.05,38.95,0)" xlink:href="#aQ"/><use transform="matrix(0.05,0,0,0.05,42.900000000000006,0)" xlink:href="#aR"/></g><path d="M185-189c-5-48-123-54-124 2 14 75 158 14 163 119 3 78-121 87-175 55-17-10-28-26-33-46l33-7c5 56 141 63 141-1 0-78-155-14-162-118-5-82 145-84 179-34 5 7 8 16 11 25" id="aS"/><path d="M206 0h-36l-40-164L89 0H53L-1-190h32L70-26l43-164h34l41 164 42-164h31" id="aT"/><path d="M24-231v-30h32v30H24zM24 0v-190h32V0H24" id="aU"/><path d="M59-47c-2 24 18 29 38 22v24C64 9 27 4 27-40v-127H5v-23h24l9-43h21v43h35v23H59v120" id="aV"/><path d="M96-169c-40 0-48 33-48 73s9 75 48 75c24 0 41-14 43-38l32 2c-6 37-31 61-74 61-59 0-76-41-82-99-10-93 101-131 147-64 4 7 5 14 7 22l-32 3c-4-21-16-35-41-35" id="aW"/><path d="M106-169C34-169 62-67 57 0H25v-261h32l-1 103c12-21 28-36 61-36 89 0 53 116 60 194h-32v-121c2-32-8-49-39-48" id="aX"/><g id="f"><use transform="matrix(0.05,0,0,0.05,0,0)" xlink:href="#aS"/><use transform="matrix(0.05,0,0,0.05,12,0)" xlink:href="#aT"/><use transform="matrix(0.05,0,0,0.05,24.950000000000003,0)" xlink:href="#aU"/><use transform="matrix(0.05,0,0,0.05,28.900000000000002,0)" xlink:href="#aV"/><use transform="matrix(0.05,0,0,0.05,33.900000000000006,0)" xlink:href="#aW"/><use transform="matrix(0.05,0,0,0.05,42.900000000000006,0)" xlink:href="#aX"/></g><path d="M33 0v-38h34V0H33" id="aY"/><g id="g"><use transform="matrix(0.05,0,0,0.05,0,0)" xlink:href="#aM"/><use transform="matrix(0.05,0,0,0.05,10,0)" xlink:href="#aY"/><use transform="matrix(0.05,0,0,0.05,15,0)" xlink:href="#aL"/><use transform="matrix(0.05,0,0,0.05,25,0)" xlink:href="#aY"/><use transform="matrix(0.05,0,0,0.05,30,0)" xlink:href="#aM"/></g><path d="M101-251c82-7 93 87 43 132L82-64C71-53 59-42 53-27h129V0H18c2-99 128-94 128-182 0-28-16-43-45-43s-46 15-49 41l-32-3c6-41 34-60 81-64" id="aZ"/><g id="h"><use transform="matrix(0.05,0,0,0.05,0,0)" xlink:href="#aL"/><use transform="matrix(0.05,0,0,0.05,10,0)" xlink:href="#aL"/><use transform="matrix(0.05,0,0,0.05,20,0)" xlink:href="#aZ"/></g><path d="M143 4C61 4 22-44 18-125c-5-107 100-154 193-111 17 8 29 25 37 43l-32 9c-13-25-37-40-76-40-61 0-88 39-88 99 0 61 29 100 91 101 35 0 62-11 79-27v-45h-74v-28h105v86C228-13 192 4 143 4" id="ba"/><path d="M114-163C36-179 61-72 57 0H25l-1-190h30c1 12-1 29 2 39 6-27 23-49 58-41v29" id="bb"/><path d="M117-194c89-4 53 116 60 194h-32v-121c0-31-8-49-39-48C34-167 62-67 57 0H25l-1-190h30c1 10-1 24 2 32 11-22 29-35 61-36" id="bc"/><g id="i"><use transform="matrix(0.05,0,0,0.05,0,0)" xlink:href="#ba"/><use transform="matrix(0.05,0,0,0.05,14,0)" xlink:href="#bb"/><use transform="matrix(0.05,0,0,0.05,19.95,0)" xlink:href="#aR"/><use transform="matrix(0.05,0,0,0.05,29.950000000000003,0)" xlink:href="#aR"/><use transform="matrix(0.05,0,0,0.05,39.95,0)" xlink:href="#bc"/></g><path d="M30 0v-248h33v221h125V0H30" id="bd"/><path d="M30 0v-248h187v28H63v79h144v27H63v87h162V0H30" id="be"/><path d="M30-248c118-7 216 8 213 122C240-48 200 0 122 0H30v-248zM63-27c89 8 146-16 146-99s-60-101-146-95v194" id="bf"/><g id="j"><use transform="matrix(0.05,0,0,0.05,0,0)" xlink:href="#bd"/><use transform="matrix(0.05,0,0,0.05,10,0)" xlink:href="#be"/><use transform="matrix(0.05,0,0,0.05,22,0)" xlink:href="#bf"/></g><g id="k"><use transform="matrix(0.05,0,0,0.05,0,0)" xlink:href="#aZ"/><use transform="matrix(0.05,0,0,0.05,10,0)" xlink:href="#aY"/><use transform="matrix(0.05,0,0,0.05,15,0)" xlink:href="#aL"/><use transform="matrix(0.05,0,0,0.05,25,0)" xlink:href="#aY"/><use transform="matrix(0.05,0,0,0.05,30,0)" xlink:href="#aL"/></g><path d="M126-127c33 6 58 20 58 59 0 88-139 92-164 29-3-8-5-16-6-25l32-3c6 27 21 44 54 44 32 0 52-15 52-46 0-38-36-46-79-43v-28c39 1 72-4 72-42 0-27-17-43-46-43-28 0-47 15-49 41l-32-3c6-42 35-63 81-64 48-1 79 21 79 65 0 36-21 52-52 59" id="bg"/><g id="l"><use transform="matrix(0.05,0,0,0.05,0,0)" xlink:href="#aL"/><use transform="matrix(0.05,0,0,0.05,10,0)" xlink:href="#aL"/><use transform="matrix(0.05,0,0,0.05,20,0)" xlink:href="#bg"/></g><path d="M233-177c-1 41-23 64-60 70L243 0h-38l-65-103H63V0H30v-248c88 3 205-21 203 71zM63-129c60-2 137 13 137-47 0-61-80-42-137-45v92" id="bh"/><path d="M85-194c31 0 48 13 60 33l-1-100h32l1 261h-30c-2-10 0-23-3-31C134-8 116 4 85 4 32 4 16-35 15-94c0-66 23-100 70-100zm9 24c-40 0-46 34-46 75 0 40 6 74 45 74 42 0 51-32 51-76 0-42-9-74-50-73" id="bi"/><g id="m"><use transform="matrix(0.05,0,0,0.05,0,0)" xlink:href="#bh"/><use transform="matrix(0.05,0,0,0.05,12.950000000000001,0)" xlink:href="#aR"/><use transform="matrix(0.05,0,0,0.05,22.950000000000003,0)" xlink:href="#bi"/></g><g id="n"><use transform="matrix(0.05,0,0,0.05,0,0)" xlink:href="#aM"/><use transform="matrix(0.05,0,0,0.05,10,0)" xlink:href="#aY"/><use transform="matrix(0.05,0,0,0.05,15,0)" xlink:href="#aL"/><use transform="matrix(0.05,0,0,0.05,25,0)" xlink:href="#aY"/><use transform="matrix(0.05,0,0,0.05,30,0)" xlink:href="#aZ"/></g><g id="o"><use transform="matrix(0.05,0,0,0.05,0,0)" xlink:href="#bd"/><use transform="matrix(0.05,0,0,0.05,10,0)" xlink:href="#be"/><use transform="matrix(0.05,0,0,0.05,22,0)" xlink:href="#bf"/></g><path d="M160-131c35 5 61 23 61 61C221 17 115-2 30 0v-248c76 3 177-17 177 60 0 33-19 50-47 57zm-97-11c50-1 110 9 110-42 0-47-63-36-110-37v79zm0 115c55-2 124 14 124-45 0-56-70-42-124-44v89" id="bj"/><g id="p"><use transform="matrix(0.05,0,0,0.05,0,0)" xlink:href="#bj"/><use transform="matrix(0.05,0,0,0.05,12,0)" xlink:href="#aU"/><use transform="matrix(0.05,0,0,0.05,15.949999999999998,0)" xlink:href="#aP"/></g><path d="M140-251c81 0 123 46 123 126C263-53 228-8 163 1c7 30 30 48 69 40v23c-55 16-95-15-103-61C56-3 17-48 17-125c0-80 42-126 123-126zm0 227c63 0 89-41 89-101s-29-99-89-99c-61 0-89 39-89 99S79-25 140-24" id="bk"/><path d="M84 4C-5 8 30-112 23-190h32v120c0 31 7 50 39 49 72-2 45-101 50-169h31l1 190h-30c-1-10 1-25-2-33-11 22-28 36-60 37" id="bl"/><g id="q"><use transform="matrix(0.05,0,0,0.05,0,0)" xlink:href="#bk"/><use transform="matrix(0.05,0,0,0.05,14,0)" xlink:href="#bl"/><use transform="matrix(0.05,0,0,0.05,24,0)" xlink:href="#aU"/><use transform="matrix(0.05,0,0,0.05,27.950000000000003,0)" xlink:href="#bc"/><use transform="matrix(0.05,0,0,0.05,37.95,0)" xlink:href="#aR"/></g><path d="M135-143c-3-34-86-38-87 0 15 53 115 12 119 90S17 21 10-45l28-5c4 36 97 45 98 0-10-56-113-15-118-90-4-57 82-63 122-42 12 7 21 19 24 35" id="bm"/><path d="M210-169c-67 3-38 105-44 169h-31v-121c0-29-5-50-35-48C34-165 62-65 56 0H25l-1-190h30c1 10-1 24 2 32 10-44 99-50 107 0 11-21 27-35 58-36 85-2 47 119 55 194h-31v-121c0-29-5-49-35-48" id="bn"/><g id="r"><use transform="matrix(0.05,0,0,0.05,0,0)" xlink:href="#bm"/><use transform="matrix(0.05,0,0,0.05,9,0)" xlink:href="#aO"/><use transform="matrix(0.05,0,0,0.05,19,0)" xlink:href="#bn"/><use transform="matrix(0.05,0,0,0.05,33.95,0)" xlink:href="#aR"/><use transform="matrix(0.05,0,0,0.05,43.95,0)" xlink:href="#aT"/><use transform="matrix(0.05,0,0,0.05,56.900000000000006,0)" xlink:href="#aX"/><use transform="matrix(0.05,0,0,0.05,66.9,0)" xlink:href="#aR"/><use transform="matrix(0.05,0,0,0.05,76.9,0)" xlink:href="#bb"/><use transform="matrix(0.05,0,0,0.05,82.85000000000001,0)" xlink:href="#aR"/></g><g id="s"><use transform="matrix(0.05,0,0,0.05,0,0)" xlink:href="#aU"/><use transform="matrix(0.05,0,0,0.05,3.95,0)" xlink:href="#bc"/></g><path d="M137-103V0h-34v-103L8-248h37l75 118 75-118h37" id="bo"/><path d="M143 0L79-87 56-68V0H24v-261h32v163l83-92h37l-77 82L181 0h-38" id="bp"/><g id="t"><use transform="matrix(0.05,0,0,0.05,0,0)" xlink:href="#bo"/><use transform="matrix(0.05,0,0,0.05,10.35,0)" xlink:href="#aO"/><use transform="matrix(0.05,0,0,0.05,20.35,0)" xlink:href="#bc"/><use transform="matrix(0.05,0,0,0.05,30.35,0)" xlink:href="#bp"/><use transform="matrix(0.05,0,0,0.05,39.35,0)" xlink:href="#aR"/><use transform="matrix(0.05,0,0,0.05,49.35,0)" xlink:href="#bb"/><use transform="matrix(0.05,0,0,0.05,55.300000000000004,0)" xlink:href="#bm"/></g><path d="M190 0L58-211 59 0H30v-248h39L202-35l-2-213h31V0h-41" id="bq"/><g id="u"><use transform="matrix(0.05,0,0,0.05,0,0)" xlink:href="#bq"/><use transform="matrix(0.05,0,0,0.05,12.950000000000001,0)" xlink:href="#bo"/></g><path d="M155-56V0h-30v-56H8v-25l114-167h33v167h35v25h-35zm-30-156c-27 46-58 90-88 131h88v-131" id="br"/><g id="v"><use transform="matrix(0.05,0,0,0.05,0,0)" xlink:href="#aL"/><use transform="matrix(0.05,0,0,0.05,10,0)" xlink:href="#aL"/><use transform="matrix(0.05,0,0,0.05,20,0)" xlink:href="#br"/></g><path d="M30-248c87 1 191-15 191 75 0 78-77 80-158 76V0H30v-248zm33 125c57 0 124 11 124-50 0-59-68-47-124-48v98" id="bs"/><path d="M115-194c53 0 69 39 70 98 0 66-23 100-70 100C84 3 66-7 56-30L54 0H23l1-261h32v101c10-23 28-34 59-34zm-8 174c40 0 45-34 45-75 0-40-5-75-45-74-42 0-51 32-51 76 0 43 10 73 51 73" id="bt"/><g id="w"><use transform="matrix(0.05,0,0,0.05,0,0)" xlink:href="#bs"/><use transform="matrix(0.05,0,0,0.05,12,0)" xlink:href="#bl"/><use transform="matrix(0.05,0,0,0.05,22,0)" xlink:href="#bm"/><use transform="matrix(0.05,0,0,0.05,31,0)" xlink:href="#aX"/><use transform="matrix(0.05,0,0,0.05,41,0)" xlink:href="#bt"/><use transform="matrix(0.05,0,0,0.05,51,0)" xlink:href="#bl"/><use transform="matrix(0.05,0,0,0.05,61,0)" xlink:href="#aV"/><use transform="matrix(0.05,0,0,0.05,66,0)" xlink:href="#aV"/><use transform="matrix(0.05,0,0,0.05,71,0)" xlink:href="#aO"/><use transform="matrix(0.05,0,0,0.05,81,0)" xlink:href="#bc"/></g><g id="x"><use transform="matrix(0.05,0,0,0.05,0,0)" xlink:href="#bf"/><use transform="matrix(0.05,0,0,0.05,12.950000000000001,0)" xlink:href="#bs"/><use transform="matrix(0.05,0,0,0.05,24.950000000000003,0)" xlink:href="#bf"/><use transform="matrix(0.05,0,0,0.05,37.900000000000006,0)" xlink:href="#aN"/></g><g id="y"><use transform="matrix(0.05,0,0,0.05,0,0)" xlink:href="#bs"/><use transform="matrix(0.05,0,0,0.05,12,0)" xlink:href="#bl"/><use transform="matrix(0.05,0,0,0.05,22,0)" xlink:href="#bm"/><use transform="matrix(0.05,0,0,0.05,31,0)" xlink:href="#aX"/><use transform="matrix(0.05,0,0,0.05,41,0)" xlink:href="#bt"/><use transform="matrix(0.05,0,0,0.05,51,0)" xlink:href="#bl"/><use transform="matrix(0.05,0,0,0.05,61,0)" xlink:href="#aV"/><use transform="matrix(0.05,0,0,0.05,66,0)" xlink:href="#aV"/><use transform="matrix(0.05,0,0,0.05,71,0)" xlink:href="#aO"/><use transform="matrix(0.05,0,0,0.05,81,0)" xlink:href="#bc"/></g><path d="M141-36C126-15 110 5 73 4 37 3 15-17 15-53c-1-64 63-63 125-63 3-35-9-54-41-54-24 1-41 7-42 31l-33-3c5-37 33-52 76-52 45 0 72 20 72 64v82c-1 20 7 32 28 27v20c-31 9-61-2-59-35zM48-53c0 20 12 33 32 33 41-3 63-29 60-74-43 2-92-5-92 41" id="bu"/><path d="M179-190L93 31C79 59 56 82 12 73V49c39 6 53-20 64-50L1-190h34L92-34l54-156h33" id="bv"/><g id="z"><use transform="matrix(0.05,0,0,0.05,0,0)" xlink:href="#bj"/><use transform="matrix(0.05,0,0,0.05,12,0)" xlink:href="#bu"/><use transform="matrix(0.05,0,0,0.05,22,0)" xlink:href="#bb"/><use transform="matrix(0.05,0,0,0.05,27.950000000000003,0)" xlink:href="#bc"/><use transform="matrix(0.05,0,0,0.05,37.95,0)" xlink:href="#bu"/><use transform="matrix(0.05,0,0,0.05,47.95,0)" xlink:href="#bt"/><use transform="matrix(0.05,0,0,0.05,57.95,0)" xlink:href="#bv"/></g><path d="M54-142c48-35 137-8 131 61C196 18 31 33 14-55l32-4c7 23 22 37 52 37 35-1 51-22 54-58 4-55-73-65-99-34H22l8-134h141v27H59" id="bw"/><g id="A"><use transform="matrix(0.05,0,0,0.05,0,0)" xlink:href="#aL"/><use transform="matrix(0.05,0,0,0.05,10,0)" xlink:href="#aL"/><use transform="matrix(0.05,0,0,0.05,20,0)" xlink:href="#bw"/></g><g id="B"><use transform="matrix(0.05,0,0,0.05,0,0)" xlink:href="#be"/><use transform="matrix(0.05,0,0,0.05,12,0)" xlink:href="#bv"/><use transform="matrix(0.05,0,0,0.05,21,0)" xlink:href="#aR"/></g><path d="M101-234c-31-9-42 10-38 44h38v23H63V0H32v-167H5v-23h27c-7-52 17-82 69-68v24" id="bx"/><g id="C"><use transform="matrix(0.05,0,0,0.05,0,0)" xlink:href="#aO"/><use transform="matrix(0.05,0,0,0.05,10,0)" xlink:href="#bx"/></g><g id="D"><use transform="matrix(0.05,0,0,0.05,0,0)" xlink:href="#bq"/><use transform="matrix(0.05,0,0,0.05,12.950000000000001,0)" xlink:href="#aR"/><use transform="matrix(0.05,0,0,0.05,22.950000000000003,0)" xlink:href="#aT"/><use transform="matrix(0.05,0,0,0.05,35.900000000000006,0)" xlink:href="#aV"/></g><path d="M99-251c64 0 84 50 84 122C183-37 130 33 47-8c-14-7-20-23-25-40l30-5c6 39 69 39 84 7 9-19 16-44 16-74-10 22-31 35-62 35-49 0-73-33-73-83 0-54 28-83 82-83zm-1 141c31-1 51-18 51-49 0-36-14-67-51-67-34 0-49 23-49 58 0 34 15 58 49 58" id="by"/><g id="E"><use transform="matrix(0.05,0,0,0.05,0,0)" xlink:href="#by"/><use transform="matrix(0.05,0,0,0.05,10,0)" xlink:href="#aY"/><use transform="matrix(0.05,0,0,0.05,15,0)" xlink:href="#by"/><use transform="matrix(0.05,0,0,0.05,25,0)" xlink:href="#aY"/><use transform="matrix(0.05,0,0,0.05,30,0)" xlink:href="#bg"/></g><path d="M68-38c1 34 0 65-14 84H32c9-13 17-26 17-46H33v-38h35" id="bz"/><g id="F"><use transform="matrix(0.05,0,0,0.05,0,0)" xlink:href="#bq"/><use transform="matrix(0.05,0,0,0.05,12.950000000000001,0)" xlink:href="#aR"/><use transform="matrix(0.05,0,0,0.05,22.950000000000003,0)" xlink:href="#aT"/><use transform="matrix(0.05,0,0,0.05,35.900000000000006,0)" xlink:href="#aV"/><use transform="matrix(0.05,0,0,0.05,40.900000000000006,0)" xlink:href="#bz"/></g><g id="G"><use transform="matrix(0.05,0,0,0.05,0,0)" xlink:href="#be"/><use transform="matrix(0.05,0,0,0.05,12,0)" xlink:href="#bv"/><use transform="matrix(0.05,0,0,0.05,21,0)" xlink:href="#aR"/></g><g id="H"><use transform="matrix(0.05,0,0,0.05,0,0)" xlink:href="#aO"/><use transform="matrix(0.05,0,0,0.05,10,0)" xlink:href="#bx"/></g><path d="M266 0h-40l-56-210L115 0H75L2-248h35L96-30l15-64 43-154h32l59 218 59-218h35" id="bA"/><path d="M141 0L90-78 38 0H4l68-98-65-92h35l48 74 47-74h35l-64 92 68 98h-35" id="bB"/><g id="I"><use transform="matrix(0.05,0,0,0.05,0,0)" xlink:href="#bA"/><use transform="matrix(0.05,0,0,0.05,16.599999999999998,0)" xlink:href="#aR"/><use transform="matrix(0.05,0,0,0.05,26.599999999999994,0)" xlink:href="#bu"/><use transform="matrix(0.05,0,0,0.05,36.599999999999994,0)" xlink:href="#aV"/><use transform="matrix(0.05,0,0,0.05,41.599999999999994,0)" xlink:href="#aX"/><use transform="matrix(0.05,0,0,0.05,51.599999999999994,0)" xlink:href="#aR"/><use transform="matrix(0.05,0,0,0.05,61.599999999999994,0)" xlink:href="#bb"/><use transform="matrix(0.05,0,0,0.05,67.55,0)" xlink:href="#aT"/><use transform="matrix(0.05,0,0,0.05,80.5,0)" xlink:href="#bu"/><use transform="matrix(0.05,0,0,0.05,90.5,0)" xlink:href="#bB"/></g><path d="M115-194c55 1 70 41 70 98S169 2 115 4C84 4 66-9 55-30l1 105H24l-1-265h31l2 30c10-21 28-34 59-34zm-8 174c40 0 45-34 45-75s-6-73-45-74c-42 0-51 32-51 76 0 43 10 73 51 73" id="bC"/><g id="J"><use transform="matrix(0.05,0,0,0.05,0,0)" xlink:href="#aX"/><use transform="matrix(0.05,0,0,0.05,10,0)" xlink:href="#aU"/><use transform="matrix(0.05,0,0,0.05,13.949999999999998,0)" xlink:href="#aQ"/><use transform="matrix(0.05,0,0,0.05,17.9,0)" xlink:href="#aQ"/><use transform="matrix(0.05,0,0,0.05,21.849999999999998,0)" xlink:href="#aV"/><use transform="matrix(0.05,0,0,0.05,26.849999999999994,0)" xlink:href="#aO"/><use transform="matrix(0.05,0,0,0.05,36.849999999999994,0)" xlink:href="#bC"/></g><g id="K"><use transform="matrix(0.05,0,0,0.05,0,0)" xlink:href="#aX"/><use transform="matrix(0.05,0,0,0.05,10,0)" xlink:href="#aO"/><use transform="matrix(0.05,0,0,0.05,20,0)" xlink:href="#bl"/><use transform="matrix(0.05,0,0,0.05,30,0)" xlink:href="#bm"/><use transform="matrix(0.05,0,0,0.05,39,0)" xlink:href="#aR"/></g><path d="M240 0l2-218c-23 76-54 145-80 218h-23L58-218 59 0H30v-248h44l77 211c21-75 51-140 76-211h43V0h-30" id="bD"/><g id="L"><use transform="matrix(0.05,0,0,0.05,0,0)" xlink:href="#bD"/><use transform="matrix(0.05,0,0,0.05,14.950000000000001,0)" xlink:href="#aO"/><use transform="matrix(0.05,0,0,0.05,24.950000000000003,0)" xlink:href="#bl"/><use transform="matrix(0.05,0,0,0.05,34.95,0)" xlink:href="#bc"/><use transform="matrix(0.05,0,0,0.05,44.95,0)" xlink:href="#aV"/><use transform="matrix(0.05,0,0,0.05,49.95,0)" xlink:href="#bu"/><use transform="matrix(0.05,0,0,0.05,59.95,0)" xlink:href="#aU"/><use transform="matrix(0.05,0,0,0.05,63.900000000000006,0)" xlink:href="#bc"/><use transform="matrix(0.05,0,0,0.05,73.9,0)" xlink:href="#bm"/></g><g id="M"><use transform="matrix(0.05,0,0,0.05,0,0)" xlink:href="#bf"/><use transform="matrix(0.05,0,0,0.05,12.950000000000001,0)" xlink:href="#bA"/></g><path d="M110-160c48 1 74 30 74 79 0 53-28 85-80 85-65 0-83-55-86-122-5-90 50-162 133-122 14 7 22 21 27 39l-31 6c-5-40-67-38-82-6-9 19-15 44-15 74 11-20 30-34 60-33zm-7 138c34 0 49-23 49-58s-16-56-50-56c-29 0-50 16-49 49 1 36 15 65 50 65" id="bE"/><g id="N"><use transform="matrix(0.05,0,0,0.05,0,0)" xlink:href="#aL"/><use transform="matrix(0.05,0,0,0.05,10,0)" xlink:href="#aL"/><use transform="matrix(0.05,0,0,0.05,20,0)" xlink:href="#bE"/></g><path d="M9 0v-24l116-142H16v-24h144v24L44-24h123V0H9" id="bF"/><g id="O"><use transform="matrix(0.05,0,0,0.05,0,0)" xlink:href="#bA"/><use transform="matrix(0.05,0,0,0.05,16.95,0)" xlink:href="#aU"/><use transform="matrix(0.05,0,0,0.05,20.9,0)" xlink:href="#bF"/><use transform="matrix(0.05,0,0,0.05,29.899999999999995,0)" xlink:href="#bF"/><use transform="matrix(0.05,0,0,0.05,38.9,0)" xlink:href="#bu"/><use transform="matrix(0.05,0,0,0.05,48.9,0)" xlink:href="#bb"/><use transform="matrix(0.05,0,0,0.05,54.85,0)" xlink:href="#bi"/></g><g id="P"><use transform="matrix(0.05,0,0,0.05,0,0)" xlink:href="#aX"/><use transform="matrix(0.05,0,0,0.05,10,0)" xlink:href="#bu"/><use transform="matrix(0.05,0,0,0.05,20,0)" xlink:href="#aV"/></g><g id="Q"><use transform="matrix(0.05,0,0,0.05,0,0)" xlink:href="#aM"/><use transform="matrix(0.05,0,0,0.05,10,0)" xlink:href="#aL"/><use transform="matrix(0.05,0,0,0.05,20,0)" xlink:href="#aY"/><use transform="matrix(0.05,0,0,0.05,25,0)" xlink:href="#aM"/><use transform="matrix(0.05,0,0,0.05,35,0)" xlink:href="#aY"/><use transform="matrix(0.05,0,0,0.05,40,0)" xlink:href="#aM"/></g><g id="R"><use transform="matrix(0.05,0,0,0.05,0,0)" xlink:href="#aN"/><use transform="matrix(0.05,0,0,0.05,9.950000000000001,0)" xlink:href="#aT"/><use transform="matrix(0.05,0,0,0.05,22.900000000000002,0)" xlink:href="#aU"/><use transform="matrix(0.05,0,0,0.05,26.85,0)" xlink:href="#aW"/><use transform="matrix(0.05,0,0,0.05,35.85,0)" xlink:href="#aR"/></g><g id="S"><use transform="matrix(0.05,0,0,0.05,0,0)" xlink:href="#aV"/><use transform="matrix(0.05,0,0,0.05,5,0)" xlink:href="#aX"/><use transform="matrix(0.05,0,0,0.05,15,0)" xlink:href="#aR"/></g><g id="T"><use transform="matrix(0.05,0,0,0.05,0,0)" xlink:href="#aT"/><use transform="matrix(0.05,0,0,0.05,12.950000000000001,0)" xlink:href="#aU"/><use transform="matrix(0.05,0,0,0.05,16.900000000000002,0)" xlink:href="#bF"/><use transform="matrix(0.05,0,0,0.05,25.900000000000002,0)" xlink:href="#bF"/><use transform="matrix(0.05,0,0,0.05,34.900000000000006,0)" xlink:href="#bu"/><use transform="matrix(0.05,0,0,0.05,44.900000000000006,0)" xlink:href="#bb"/><use transform="matrix(0.05,0,0,0.05,50.85000000000001,0)" xlink:href="#bi"/></g><g id="U"><use transform="matrix(0.05,0,0,0.05,0,0)" xlink:href="#bh"/><use transform="matrix(0.05,0,0,0.05,12.950000000000001,0)" xlink:href="#aU"/><use transform="matrix(0.05,0,0,0.05,16.900000000000002,0)" xlink:href="#bc"/><use transform="matrix(0.05,0,0,0.05,26.900000000000002,0)" xlink:href="#aW"/><use transform="matrix(0.05,0,0,0.05,35.900000000000006,0)" xlink:href="#aR"/><use transform="matrix(0.05,0,0,0.05,45.900000000000006,0)" xlink:href="#aT"/><use transform="matrix(0.05,0,0,0.05,58.85,0)" xlink:href="#aU"/><use transform="matrix(0.05,0,0,0.05,62.80000000000001,0)" xlink:href="#bc"/><use transform="matrix(0.05,0,0,0.05,72.80000000000001,0)" xlink:href="#bi"/></g><g id="V"><use transform="matrix(0.05,0,0,0.05,0,0)" xlink:href="#bf"/><use transform="matrix(0.05,0,0,0.05,12.950000000000001,0)" xlink:href="#bb"/><use transform="matrix(0.05,0,0,0.05,18.900000000000002,0)" xlink:href="#bu"/><use transform="matrix(0.05,0,0,0.05,28.900000000000002,0)" xlink:href="#aP"/><use transform="matrix(0.05,0,0,0.05,38.900000000000006,0)" xlink:href="#aO"/><use transform="matrix(0.05,0,0,0.05,48.900000000000006,0)" xlink:href="#bc"/><use transform="matrix(0.05,0,0,0.05,58.900000000000006,0)" xlink:href="#bm"/></g><g id="W"><use transform="matrix(0.05,0,0,0.05,0,0)" xlink:href="#bd"/><use transform="matrix(0.05,0,0,0.05,10,0)" xlink:href="#bu"/><use transform="matrix(0.05,0,0,0.05,20,0)" xlink:href="#bc"/><use transform="matrix(0.05,0,0,0.05,30,0)" xlink:href="#bi"/><use transform="matrix(0.05,0,0,0.05,40,0)" xlink:href="#aU"/><use transform="matrix(0.05,0,0,0.05,43.95,0)" xlink:href="#bc"/><use transform="matrix(0.05,0,0,0.05,53.95,0)" xlink:href="#aP"/></g><path d="M205 0l-28-72H64L36 0H1l101-248h38L239 0h-34zm-38-99l-47-123c-12 45-31 82-46 123h93" id="bG"/><g id="X"><use transform="matrix(0.05,0,0,0.05,0,0)" xlink:href="#bG"/><use transform="matrix(0.05,0,0,0.05,12,0)" xlink:href="#bc"/><use transform="matrix(0.05,0,0,0.05,22,0)" xlink:href="#bp"/><use transform="matrix(0.05,0,0,0.05,31,0)" xlink:href="#bn"/><use transform="matrix(0.05,0,0,0.05,45.95,0)" xlink:href="#aO"/><use transform="matrix(0.05,0,0,0.05,55.95,0)" xlink:href="#bb"/><use transform="matrix(0.05,0,0,0.05,61.900000000000006,0)" xlink:href="#bC"/><use transform="matrix(0.05,0,0,0.05,71.9,0)" xlink:href="#aO"/><use transform="matrix(0.05,0,0,0.05,81.9,0)" xlink:href="#bb"/><use transform="matrix(0.05,0,0,0.05,87.85000000000001,0)" xlink:href="#bp"/></g><path d="M24-248c120-7 223 5 221 122C244-46 201 0 124 0H24v-248zM76-40c74 7 117-18 117-86 0-67-45-88-117-82v168" id="bH"/><path d="M190-63c-7 42-38 67-86 67-59 0-84-38-90-98-12-110 154-137 174-36l-49 2c-2-19-15-32-35-32-30 0-35 28-38 64-6 74 65 87 74 30" id="bI"/><path d="M135-194c53 0 70 44 70 98 0 56-19 98-73 100-31 1-45-17-59-34 3 33 2 69 2 105H25l-1-265h48c2 10 0 23 3 31 11-24 29-35 60-35zM114-30c33 0 39-31 40-66 0-38-9-64-40-64-56 0-55 130 0 130" id="bJ"/><path d="M115-3C79 11 28 4 28-45v-112H4v-33h27l15-45h31v45h36v33H77v99c-1 23 16 31 38 25v30" id="bK"/><g id="Y"><use transform="matrix(0.07620789513793627,0,0,0.07620789513793627,0,0)" xlink:href="#bH"/><use transform="matrix(0.07620789513793627,0,0,0.07620789513793627,19.737844840725494,0)" xlink:href="#aD"/><use transform="matrix(0.07620789513793627,0,0,0.07620789513793627,34.97942386831275,0)" xlink:href="#aH"/><use transform="matrix(0.07620789513793627,0,0,0.07620789513793627,50.2210028959,0)" xlink:href="#bI"/><use transform="matrix(0.07620789513793627,0,0,0.07620789513793627,65.46258192348726,0)" xlink:href="#aE"/><use transform="matrix(0.07620789513793627,0,0,0.07620789513793627,76.13168724279834,0)" xlink:href="#aI"/><use transform="matrix(0.07620789513793627,0,0,0.07620789513793627,83.75247675659196,0)" xlink:href="#bJ"/><use transform="matrix(0.07620789513793627,0,0,0.07620789513793627,100.4420057918,0)" xlink:href="#bK"/><use transform="matrix(0.07620789513793627,0,0,0.07620789513793627,109.51074531321443,0)" xlink:href="#aI"/><use transform="matrix(0.07620789513793627,0,0,0.07620789513793627,117.13153482700802,0)" xlink:href="#aJ"/><use transform="matrix(0.07620789513793627,0,0,0.07620789513793627,133.82106386221608,0)" xlink:href="#aK"/></g><path d="M67-125c0 53 21 87 73 88 37 1 54-22 65-47l45 17C233-25 199 4 140 4 58 4 20-42 15-125 8-235 124-281 211-232c18 10 29 29 36 50l-46 12c-8-25-30-41-62-41-52 0-71 34-72 86" id="bL"/><g id="Z"><use transform="matrix(0.07620789513793627,0,0,0.07620789513793627,0,0)" xlink:href="#bL"/><use transform="matrix(0.07620789513793627,0,0,0.07620789513793627,19.737844840725494,0)" xlink:href="#aA"/><use transform="matrix(0.07620789513793627,0,0,0.07620789513793627,36.42737387593354,0)" xlink:href="#aH"/><use transform="matrix(0.07620789513793627,0,0,0.07620789513793627,51.668952903520804,0)" xlink:href="#bK"/><use transform="matrix(0.07620789513793627,0,0,0.07620789513793627,60.73769242493521,0)" xlink:href="#aJ"/><use transform="matrix(0.07620789513793627,0,0,0.07620789513793627,77.42722146014326,0)" xlink:href="#aB"/><use transform="matrix(0.07620789513793627,0,0,0.07620789513793627,101.81374790428286,0)" xlink:href="#aD"/><use transform="matrix(0.07620789513793627,0,0,0.07620789513793627,117.05532693187011,0)" xlink:href="#aE"/></g><path d="M169-182c-1-43-94-46-97-3 18 66 151 10 154 114 3 95-165 93-204 36-6-8-10-19-12-30l50-8c3 46 112 56 116 5-17-69-150-10-154-114-4-87 153-88 188-35 5 8 8 18 10 28" id="bM"/><g id="aa"><use transform="matrix(0.07620789513793627,0,0,0.07620789513793627,0,0)" xlink:href="#bM"/><use transform="matrix(0.07620789513793627,0,0,0.07620789513793627,18.289894833104704,0)" xlink:href="#bK"/><use transform="matrix(0.07620789513793627,0,0,0.07620789513793627,27.35863435451912,0)" xlink:href="#aE"/><use transform="matrix(0.07620789513793627,0,0,0.07620789513793627,38.0277396738302,0)" xlink:href="#aD"/><use transform="matrix(0.07620789513793627,0,0,0.07620789513793627,53.269318701417454,0)" xlink:href="#aD"/><use transform="matrix(0.07620789513793627,0,0,0.07620789513793627,68.51089772900471,0)" xlink:href="#bK"/></g><path d="M123 10C108 53 80 86 19 72V37c35 8 53-11 59-39L3-190h52l48 148c12-52 28-100 44-148h51" id="bN"/><g id="ab"><use transform="matrix(0.07620789513793627,0,0,0.07620789513793627,0,0)" xlink:href="#bL"/><use transform="matrix(0.07620789513793627,0,0,0.07620789513793627,19.737844840725494,0)" xlink:href="#aI"/><use transform="matrix(0.07620789513793627,0,0,0.07620789513793627,27.358634354519122,0)" xlink:href="#bK"/><use transform="matrix(0.07620789513793627,0,0,0.07620789513793627,36.42737387593354,0)" xlink:href="#bN"/></g><g id="ac"><use transform="matrix(0.07620789513793627,0,0,0.07620789513793627,0,0)" xlink:href="#bM"/><use transform="matrix(0.07620789513793627,0,0,0.07620789513793627,18.289894833104704,0)" xlink:href="#bK"/><use transform="matrix(0.07620789513793627,0,0,0.07620789513793627,27.35863435451912,0)" xlink:href="#aF"/><use transform="matrix(0.07620789513793627,0,0,0.07620789513793627,42.600213382106375,0)" xlink:href="#bK"/><use transform="matrix(0.07620789513793627,0,0,0.07620789513793627,51.66895290352079,0)" xlink:href="#aD"/></g><g id="ad"><use transform="matrix(0.05,0,0,0.05,0,0)" xlink:href="#aS"/><use transform="matrix(0.05,0,0,0.05,12,0)" xlink:href="#bA"/><use transform="matrix(0.05,0,0,0.05,28.950000000000003,0)" xlink:href="#bs"/><use transform="matrix(0.05,0,0,0.05,40.95,0)" xlink:href="#bf"/><use transform="matrix(0.05,0,0,0.05,53.900000000000006,0)" xlink:href="#aN"/></g><g id="ae"><use transform="matrix(0.05,0,0,0.05,0,0)" xlink:href="#aN"/><use transform="matrix(0.05,0,0,0.05,8.950000000000001,0)" xlink:href="#aO"/><use transform="matrix(0.05,0,0,0.05,18.950000000000003,0)" xlink:href="#aP"/><use transform="matrix(0.05,0,0,0.05,28.950000000000003,0)" xlink:href="#aP"/><use transform="matrix(0.05,0,0,0.05,38.95,0)" xlink:href="#aQ"/><use transform="matrix(0.05,0,0,0.05,42.900000000000006,0)" xlink:href="#aR"/></g><g id="af"><use transform="matrix(0.05,0,0,0.05,0,0)" xlink:href="#bs"/><use transform="matrix(0.05,0,0,0.05,12,0)" xlink:href="#aO"/><use transform="matrix(0.05,0,0,0.05,22,0)" xlink:href="#bC"/><use transform="matrix(0.05,0,0,0.05,32,0)" xlink:href="#bC"/><use transform="matrix(0.05,0,0,0.05,42,0)" xlink:href="#aR"/><use transform="matrix(0.05,0,0,0.05,52,0)" xlink:href="#bb"/></g><path d="M137 0h-34L2-248h35l83 218 83-218h36" id="bO"/><g id="ag"><use transform="matrix(0.05,0,0,0.05,0,0)" xlink:href="#bO"/><use transform="matrix(0.05,0,0,0.05,11,0)" xlink:href="#aR"/><use transform="matrix(0.05,0,0,0.05,21,0)" xlink:href="#bc"/><use transform="matrix(0.05,0,0,0.05,31,0)" xlink:href="#aU"/><use transform="matrix(0.05,0,0,0.05,34.95,0)" xlink:href="#aW"/><use transform="matrix(0.05,0,0,0.05,43.95,0)" xlink:href="#aR"/></g><path d="M212-179c-10-28-35-45-73-45-59 0-87 40-87 99 0 60 29 101 89 101 43 0 62-24 78-52l27 14C228-24 195 4 139 4 59 4 22-46 18-125c-6-104 99-153 187-111 19 9 31 26 39 46" id="bP"/><g id="ah"><use transform="matrix(0.05,0,0,0.05,0,0)" xlink:href="#bP"/><use transform="matrix(0.05,0,0,0.05,12.950000000000001,0)" xlink:href="#bG"/></g><path d="M194 0L95-120 63-95V0H30v-248h33v124l119-124h40L117-140 236 0h-42" id="bQ"/><g id="ai"><use transform="matrix(0.05,0,0,0.05,0,0)" xlink:href="#bQ"/><use transform="matrix(0.05,0,0,0.05,12,0)" xlink:href="#bl"/><use transform="matrix(0.05,0,0,0.05,22,0)" xlink:href="#aX"/><use transform="matrix(0.05,0,0,0.05,32,0)" xlink:href="#bc"/></g><g id="aj"><use transform="matrix(0.05,0,0,0.05,0,0)" xlink:href="#bj"/><use transform="matrix(0.05,0,0,0.05,12,0)" xlink:href="#aO"/><use transform="matrix(0.05,0,0,0.05,22,0)" xlink:href="#bm"/><use transform="matrix(0.05,0,0,0.05,31,0)" xlink:href="#aV"/><use transform="matrix(0.05,0,0,0.05,36,0)" xlink:href="#aO"/><use transform="matrix(0.05,0,0,0.05,46,0)" xlink:href="#bc"/></g><g id="ak"><use transform="matrix(0.05,0,0,0.05,0,0)" xlink:href="#bD"/><use transform="matrix(0.05,0,0,0.05,14.950000000000001,0)" xlink:href="#bG"/></g><path fill="#316ccc" d="M15-91v-56l181-69v40L49-119l147 57v40" id="bR"/><g id="al"><use transform="matrix(0.05,0,0,0.05,0,0)" xlink:href="#bR"/><use transform="matrix(0.05,0,0,0.05,10.5,0)" xlink:href="#bR"/><path fill="#316ccc" d="M-.9.97h27.8v1.9H-.9z"/></g><path fill="#316ccc" d="M24-248c93 1 206-16 204 79-1 75-69 88-152 82V0H24v-248zm52 121c47 0 100 7 100-41 0-47-54-39-100-39v80" id="bS"/><path fill="#316ccc" d="M135-150c-39-12-60 13-60 57V0H25l-1-190h47c2 13-1 29 3 40 6-28 27-53 61-41v41" id="bT"/><path fill="#316ccc" d="M185-48c-13 30-37 53-82 52C43 2 14-33 14-96s30-98 90-98c62 0 83 45 84 108H66c0 31 8 55 39 56 18 0 30-7 34-22zm-45-69c5-46-57-63-70-21-2 6-4 13-4 21h74" id="bU"/><path fill="#316ccc" d="M128 0H69L1-190h53L99-40l48-150h52" id="bV"/><g id="am"><use transform="matrix(0.05,0,0,0.05,0,0)" xlink:href="#bS"/><use transform="matrix(0.05,0,0,0.05,12,0)" xlink:href="#bT"/><use transform="matrix(0.05,0,0,0.05,19,0)" xlink:href="#bU"/><use transform="matrix(0.05,0,0,0.05,29,0)" xlink:href="#bV"/><path fill="#316ccc" d="M-.9.97h40.8v1.9H-.9z"/></g><path fill="#316ccc" d="M23 0v-37h61v-169l-59 37v-38l62-41h46v211h57V0H23" id="bW"/><g id="an"><use transform="matrix(0.05,0,0,0.05,0,0)" xlink:href="#bW"/><path fill="#316ccc" d="M-.9.97h11.8v1.9H-.9z"/></g><path fill="#316ccc" d="M182-182c0 78-84 86-111 141h115V0H12c-6-101 99-100 120-180 1-22-12-31-33-32-23 0-32 14-35 34l-49-3c5-45 32-70 84-70 51 0 83 22 83 69" id="bX"/><g id="ao"><use transform="matrix(0.05,0,0,0.05,0,0)" xlink:href="#bX"/><path fill="#316ccc" d="M-.9.97h11.8v1.9H-.9z"/></g><path fill="#316ccc" d="M128-127c34 4 56 21 59 58 7 91-148 94-172 28-4-9-6-17-7-26l51-5c1 24 16 35 40 36 23 0 39-12 38-36-1-31-31-36-65-34v-40c32 2 59-3 59-33 0-20-13-33-34-33s-33 13-35 32l-50-3c6-44 37-68 86-68 50 0 83 20 83 66 0 35-22 52-53 58" id="bY"/><g id="ap"><use transform="matrix(0.05,0,0,0.05,0,0)" xlink:href="#bY"/><path fill="#316ccc" d="M-.9.97h11.8v1.9H-.9z"/></g><path fill="#316ccc" d="M165-50V0h-47v-50H5v-38l105-160h55v161h33v37h-33zm-47-37l2-116L46-87h72" id="bZ"/><g id="aq"><use transform="matrix(0.05,0,0,0.05,0,0)" xlink:href="#bZ"/><path fill="#316ccc" d="M-.9.97h11.8v1.9H-.9z"/></g><path fill="#316ccc" d="M139-81c0-46-55-55-73-27H18l9-140h149v37H72l-4 63c44-38 133-4 122 66C201 21 21 35 11-62l49-4c5 18 15 30 39 30 26 0 40-18 40-45" id="ca"/><g id="ar"><use transform="matrix(0.05,0,0,0.05,0,0)" xlink:href="#ca"/><path fill="#316ccc" d="M-.9.97h11.8v1.9H-.9z"/></g><path fill="#316ccc" d="M115-159c48 0 72 30 72 78 0 54-30 85-83 85-64 0-91-50-91-122 0-98 58-163 141-120 15 8 21 24 27 44l-47 6c-5-31-48-31-61-4-7 14-11 33-11 60 9-17 28-27 53-27zM102-35c24 0 36-20 36-45s-11-43-37-43c-23 0-36 14-36 38 0 27 11 50 37 50" id="cb"/><g id="as"><use transform="matrix(0.05,0,0,0.05,0,0)" xlink:href="#cb"/><path fill="#316ccc" d="M-.9.97h11.8v1.9H-.9z"/></g><path fill="#316ccc" d="M52 0c1-96 47-148 87-207H15v-41h169v40c-36 62-79 113-81 208H52" id="cc"/><g id="at"><use transform="matrix(0.05,0,0,0.05,0,0)" xlink:href="#cc"/><path fill="#316ccc" d="M-.9.97h11.8v1.9H-.9z"/></g><path fill="#316ccc" d="M138-131c27 9 52 24 51 61 0 53-36 74-89 74S11-19 11-69c0-35 22-54 51-61-78-25-46-121 38-121 51 0 83 19 83 66 0 30-18 49-45 54zm-38-16c24 0 32-13 32-36 1-23-11-34-32-34-22 0-33 12-32 34 0 22 9 36 32 36zm1 116c27 0 37-17 37-43 0-25-13-39-39-39-24 0-37 15-37 40 0 27 11 42 39 42" id="cd"/><g id="au"><use transform="matrix(0.05,0,0,0.05,0,0)" xlink:href="#cd"/><path fill="#316ccc" d="M-.9.97h11.8v1.9H-.9z"/></g><path fill="#316ccc" d="M99-251c69 0 84 53 88 123 5 99-61 162-144 118-15-8-21-25-26-45l46-6c4 31 50 33 63 7 7-15 12-36 12-60-9 18-29 28-54 28-48 0-72-32-72-82 0-55 31-83 87-83zm-1 128c24 0 37-16 37-39 0-27-10-51-37-51-25 0-35 19-35 45 0 25 10 45 35 45" id="ce"/><g id="av"><use transform="matrix(0.05,0,0,0.05,0,0)" xlink:href="#ce"/><path fill="#316ccc" d="M-.9.97h11.8v1.9H-.9z"/></g><path fill="#316ccc" d="M101-251c68 0 84 54 84 127C185-50 166 4 99 4S15-52 14-124c-1-75 17-127 87-127zm-1 216c37-5 36-46 36-89s4-89-36-89c-39 0-36 45-36 89 0 43-3 85 36 89" id="cf"/><g id="aw"><use transform="matrix(0.05,0,0,0.05,0,0)" xlink:href="#bW"/><use transform="matrix(0.05,0,0,0.05,10,0)" xlink:href="#cf"/><path fill="#316ccc" d="M-.9.97h21.8v1.9H-.9z"/></g><path fill="#316ccc" d="M175 0L67-191c6 58 2 128 3 191H24v-248h59L193-55c-6-58-2-129-3-193h46V0h-61" id="cg"/><path fill="#316ccc" d="M144 0l-44-69L55 0H2l70-98-66-92h53l41 62 40-62h54l-67 91 71 99h-54" id="ch"/><path fill="#316ccc" d="M115-3C79 11 28 4 28-45v-112H4v-33h27l15-45h31v45h36v33H77v99c-1 23 16 31 38 25v30" id="ci"/><g id="ax"><use transform="matrix(0.05,0,0,0.05,0,0)" xlink:href="#cg"/><use transform="matrix(0.05,0,0,0.05,12.950000000000001,0)" xlink:href="#bU"/><use transform="matrix(0.05,0,0,0.05,22.950000000000003,0)" xlink:href="#ch"/><use transform="matrix(0.05,0,0,0.05,32.95,0)" xlink:href="#ci"/><path fill="#316ccc" d="M-.9.97h45.7v1.9H-.9z"/></g><path fill="#316ccc" d="M15-22v-40l146-57-146-57v-40l181 69v56" id="cj"/><g id="ay"><use transform="matrix(0.05,0,0,0.05,0,0)" xlink:href="#cj"/><use transform="matrix(0.05,0,0,0.05,10.5,0)" xlink:href="#cj"/><path fill="#316ccc" d="M-.9.97h22.8v1.9H-.9z"/></g></defs></g></svg>